#!OML:ASF E:\Steps\Project 1\Capture day 1\Session 2\Subject.ASF
:FULLY-SPECIFIED
:DEGREES
382
root 12.2923 17.1769 16.8875 -154.06 -1.22172 176.971
lowerback -28.9525 -2.27699 -6.41873
upperback -0.7782 -1.35965 -0.562476
thorax 14.559 -1.26241 2.29261
lowerneck -1.49778 -3.24646 1.1577
upperneck 6.84617 -4.13526 -1.88419
head 2.34352 -2.02421 -0.892415
rclavicle -1.3418e-015 1.03368e-014
rhumerus -33.3862 -16.3569 -81.1591
rradius 33.6241
rwrist -5.14415
rhand -4.89272 -52.9304
rfingers 7.12502
rthumb 20.8965 -81.8249
lclavicle -1.3418e-015 1.03368e-014
lhumerus -28.5514 1.68334 84.779
lradius 24.2138
lwrist -3.85906
lhand -20.4599 -12.6559
lfingers 7.12502
lthumb 5.89585 17.242
rfemur -23.4002 4.21826 20.0055
rtibia 7.52754
rfoot -18.2076 3.62495
rtoes -21.7579
lfemur -22.7481 -7.28438 -23.0405
ltibia 7.16945
lfoot -4.75905 -3.93437
ltoes 1.32417
383
root 12.2934 17.1769 16.8798 -154.199 -1.26133 176.896
lowerback -28.9258 -2.3306 -6.51814
upperback -0.803593 -1.40447 -0.558613
thorax 14.5218 -1.28933 2.33347
lowerneck -1.47682 -3.18333 1.04433
upperneck 6.25952 -4.07915 -1.82232
head 2.15092 -2.00766 -0.842028
rclavicle -1.44119e-015 2.90226e-014
rhumerus -33.1171 -16.2691 -81.4049
rradius 33.8648
rwrist -5.49075
rhand -5.18095 -53.8089
rfingers 7.12502
rthumb 20.6196 -82.7337
lclavicle -1.44119e-015 2.90226e-014
lhumerus -28.466 1.82153 84.8119
lradius 23.8423
lwrist -3.89289
lhand -20.2654 -12.8312
lfingers 7.12502
lthumb 6.08357 17.0615
rfemur -23.1897 4.19238 19.9408
rtibia 7.51787
rfoot -18.0628 3.86132
rtoes -19.4989
lfemur -22.6031 -7.50375 -23.0921
ltibia 7.29108
lfoot -4.91666 -3.83754
ltoes 1.22872
384
root 12.293 17.1754 16.8716 -154.257 -1.23199 176.842
lowerback -28.9633 -2.35561 -6.60988
upperback -0.848788 -1.41626 -0.547254
thorax 14.4882 -1.30295 2.38942
lowerneck -1.50346 -3.0599 0.913119
upperneck 5.7309 -3.93959 -1.73177
head 1.98932 -1.94744 -0.78054
rclavicle 3.52843e-015 3.97569e-015
rhumerus -32.8264 -16.3725 -81.5611
rradius 33.9647
rwrist -5.58679
rhand -5.28873 -54.7439
rfingers 7.12502
rthumb 20.516 -83.6799
lclavicle 3.52843e-015 3.97569e-015
lhumerus -28.3877 1.95128 84.902
lradius 23.5126
lwrist -3.96252
lhand -20.3925 -12.6268
lfingers 7.12502
lthumb 5.96092 17.2693
rfemur -23.1316 4.18912 19.8746
rtibia 7.61008
rfoot -18.0376 3.99648
rtoes -19.0686
lfemur -22.4953 -7.51807 -23.1737
ltibia 7.27262
lfoot -4.8867 -3.8942
ltoes 2.48352
385
root 12.2939 17.176 16.8666 -154.292 -1.24699 176.832
lowerback -28.9542 -2.36714 -6.64685
upperback -0.946474 -1.43977 -0.542
thorax 14.3721 -1.31748 2.40598
lowerneck -1.53822 -2.98951 0.863191
upperneck 5.40192 -3.86298 -1.65809
head 1.892 -1.91375 -0.74314
rclavicle 9.93923e-015 -8.74653e-015
rhumerus -32.7134 -16.3769 -81.6914
rradius 34.1034
rwrist -5.82003
rhand -5.27643 -54.2699
rfingers 7.12502
rthumb 20.5278 -83.2046
lclavicle 9.93923e-015 -8.74653e-015
lhumerus -28.491 1.93863 84.9908
lradius 23.3762
lwrist -3.77363
lhand -20.6559 -12.2427
lfingers 7.12502
lthumb 5.70654 17.6605
rfemur -23.0547 4.1633 19.8751
rtibia 7.55752
rfoot -17.9832 3.98465
rtoes -19.318
lfemur -22.4468 -7.43774 -23.1982
ltibia 7.25042
lfoot -4.79264 -4.00658
ltoes 2.92399
386
root 12.2959 17.1713 16.8595 -154.2 -1.17576 176.853
lowerback -29.0969 -2.33495 -6.64141
upperback -1.07683 -1.41747 -0.562305
thorax 14.2821 -1.31266 2.385
lowerneck -1.62531 -3.008 0.95127
upperneck 5.20605 -3.90163 -1.65752
head 1.8419 -1.93513 -0.757323
rclavicle -2.13694e-015 9.54166e-015
rhumerus -32.6289 -16.2129 -81.8843
rradius 34.2679
rwrist -6.2966
rhand -5.48844 -51.9774
rfingers 7.12502
rthumb 20.3241 -80.934
lclavicle -2.13694e-015 9.54166e-015
lhumerus -28.6386 2.0757 84.9644
lradius 23.2425
lwrist -3.85282
lhand -20.4728 -12.1271
lfingers 7.12502
lthumb 5.8834 17.7712
rfemur -23.1683 4.05765 19.9216
rtibia 7.58432
rfoot -18.1124 4.16079
rtoes -18.9246
lfemur -22.5873 -7.49005 -23.1523
ltibia 7.39988
lfoot -5.33124 -3.97193
ltoes -3.15807
387
root 12.2974 17.1693 16.8521 -154.21 -1.22628 176.888
lowerback -29.0594 -2.31158 -6.58561
upperback -1.21161 -1.43112 -0.586865
thorax 14.1075 -1.31616 2.32392
lowerneck -1.70073 -3.02307 1.07031
upperneck 5.06128 -3.9316 -1.70468
head 1.80501 -1.9517 -0.792004
rclavicle -9.59136e-015 1.27222e-014
rhumerus -32.6177 -16.7002 -81.6995
rradius 33.9385
rwrist -5.20791
rhand -4.08005 -49.6585
rfingers 7.12502
rthumb 21.6771 -78.465
lclavicle -9.59136e-015 1.27222e-014
lhumerus -28.7515 2.25836 84.8458
lradius 23.0289
lwrist -4.06432
lhand -20.0524 -12.2743
lfingers 7.12502
lthumb 6.28928 17.6123
rfemur -23.1517 3.94242 20.0088
rtibia 7.6614
rfoot -19.2028 4.30879
rtoes -17.2432
lfemur -22.6161 -7.69754 -23.0607
ltibia 7.58284
lfoot -6.70493 -3.91656
ltoes -18.1156
